<svg width="18" height="19" viewBox="0 0 18 19" fill="none" xmlns="http://www.w3.org/2000/svg">
<g clip-path="url(#clip0_786_376)">
<path d="M14.235 7.71875C14.235 9.42207 13.7405 10.9955 12.9076 12.2721L17.1089 16.9738C17.5237 17.4377 17.5237 18.191 17.1089 18.6549C16.6941 19.1187 16.0204 19.1187 15.6056 18.6549L11.4042 13.9531C10.2627 14.8883 8.85557 15.4375 7.33234 15.4375C3.51929 15.4375 0.429688 11.9826 0.429688 7.71875C0.429688 3.45488 3.51929 0 7.33234 0C11.1454 0 14.235 3.45488 14.235 7.71875ZM7.33234 13.0625C7.9599 13.0625 8.58131 12.9243 9.1611 12.6557C9.74088 12.3872 10.2677 11.9936 10.7114 11.4973C11.1552 11.0011 11.5072 10.412 11.7473 9.76371C11.9875 9.11538 12.1111 8.4205 12.1111 7.71875C12.1111 7.017 11.9875 6.32212 11.7473 5.67378C11.5072 5.02545 11.1552 4.43636 10.7114 3.94015C10.2677 3.44393 9.74088 3.05032 9.1611 2.78177C8.58131 2.51322 7.9599 2.375 7.33234 2.375C6.70479 2.375 6.08338 2.51322 5.50359 2.78177C4.9238 3.05032 4.397 3.44393 3.95325 3.94015C3.5095 4.43636 3.1575 5.02545 2.91734 5.67378C2.67719 6.32212 2.55358 7.017 2.55358 7.71875C2.55358 8.4205 2.67719 9.11538 2.91734 9.76371C3.1575 10.412 3.5095 11.0011 3.95325 11.4973C4.397 11.9936 4.9238 12.3872 5.50359 12.6557C6.08338 12.9243 6.70479 13.0625 7.33234 13.0625Z" fill="black"/>
</g>
<defs>
<clipPath id="clip0_786_376">
<rect width="16.9911" height="19" fill="white" transform="translate(0.429688)"/>
</clipPath>
</defs>
</svg>
